HIERARCHY
ROOT hip
{
	OFFSET 0.000000 0.000000 0.000000 
	CHANNELS 6 Xposition Yposition Zposition Xrotation Zrotation Yrotation
	JOINT abdomen
	{
		OFFSET 0.000000 3.402643 0.000000 
		CHANNELS 3 Xrotation Zrotation Yrotation
		JOINT chest
		{
			OFFSET 0.000000 8.438565 -0.680529 
			CHANNELS 3 Xrotation Zrotation Yrotation
			JOINT neck
			{
				OFFSET 0.000000 10.207942 -0.272212 
				CHANNELS 3 Xrotation Zrotation Yrotation
				JOINT head
				{
					OFFSET 0.000000 3.130431 0.000000 
					CHANNELS 3 Xrotation Zrotation Yrotation
					End Site
					{
						OFFSET 0.000000 3.130435 0.000000 
					}
				}
			}
			JOINT lCollar
			{
				OFFSET 3.470700 6.669187 -0.816635 
				CHANNELS 3 Yrotation Zrotation Xrotation
				JOINT lShldr
				{
					OFFSET 3.198488 0.000000 0.000000 
					CHANNELS 3 Zrotation Yrotation Xrotation
					JOINT lForeArm
					{
						OFFSET 10.139888 0.000000 0.000000 
						CHANNELS 3 Yrotation Zrotation Xrotation
						JOINT lHand
						{
							OFFSET 8.370511 0.000000 0.000000 
							CHANNELS 3 Zrotation Yrotation Xrotation
							End Site
							{
								OFFSET 4.083176 0.000000 0.000000 
							}
						}
					}
				}
			}
			JOINT rCollar
			{
				OFFSET -3.470700 6.669187 -0.816635 
				CHANNELS 3 Yrotation Zrotation Xrotation
				JOINT rShldr
				{
					OFFSET -3.198488 0.000000 0.000000 
					CHANNELS 3 Zrotation Yrotation Xrotation
					JOINT rForeArm
					{
						OFFSET -10.139888 0.000000 0.000000 
						CHANNELS 3 Yrotation Zrotation Xrotation
						JOINT rHand
						{
							OFFSET -8.370511 0.000000 0.000000 
							CHANNELS 3 Zrotation Yrotation Xrotation
							End Site
							{
								OFFSET -4.083176 0.000000 0.000000 
							}
						}
					}
				}
			}
		}
	}
	JOINT lThigh
	{
		OFFSET 5.308129 -1.633274 1.361059 
		CHANNELS 3 Xrotation Zrotation Yrotation
		JOINT lShin
		{
			OFFSET -2.041588 -20.007561 0.000000 
			CHANNELS 3 Xrotation Zrotation Yrotation
			JOINT lFoot
			{
				OFFSET 0.000000 -19.190928 -1.224953 
				CHANNELS 3 Xrotation Yrotation Zrotation
				End Site
				{
					OFFSET 0.000000 -2.449906 4.627600 
				}
			}
		}
	}
	JOINT rThigh
	{
		OFFSET -5.308129 -1.633274 1.361059 
		CHANNELS 3 Xrotation Zrotation Yrotation
		JOINT rShin
		{
			OFFSET 2.041588 -20.007561 0.000000 
			CHANNELS 3 Xrotation Zrotation Yrotation
			JOINT rFoot
			{
				OFFSET 0.000000 -19.190928 -1.224953 
				CHANNELS 3 Xrotation Yrotation Zrotation
				End Site
				{
					OFFSET 0.000000 -2.449906 4.627600 
				}
			}
		}
	}
}
MOTION
Frames: 6
Frame Time: 0.033333
-0.231778 52.890259 4.351543 0.869141 -1.425781 14.384766 25.851624 -11.998955 -4.333244 -16.074219 15.185550 6.858027 51.553619 8.070152 2.616707 -66.718750 -4.580078 -6.748919 2.000000 -2.000000 0.000000 -76.103508 1.464844 8.193610 -115.520844 24.928926 53.458897 -31.033051 19.614126 -25.076517 -2.000000 2.000000 0.000000 85.078125 -18.857422 2.789814 51.317318 1.489054 -1.934093 4.563103 -61.206242 -11.632660 -8.864077 10.825997 1.556854 40.730827 -4.647202 -3.815791 27.235432 16.354494 -0.765897 4.683132 3.773236 -23.587666 -1.382044 5.939485 -0.377363 2.601340 -11.754519 -1.113921 
-0.389784 52.994831 6.663994 1.757813 0.166016 14.042967 26.018181 -15.344322 -2.624124 -16.503906 14.179688 7.394971 51.553619 8.070152 2.616707 -67.675781 -1.767578 -11.142578 2.000000 -2.000000 0.000000 -76.103508 1.464844 8.193610 -115.520844 24.928926 53.458897 -31.057146 20.797222 -22.237482 -2.000000 2.000000 0.000000 81.005859 -15.146484 8.310546 52.908573 1.497664 -1.914033 1.333328 -58.877235 -9.403228 -15.889226 10.938008 1.035821 41.785168 -4.711964 -3.699695 21.316799 14.534477 -1.168655 7.885039 3.101390 -24.559202 -2.776045 5.894855 -0.247335 1.019101 -10.612298 -1.502100 
-0.499561 52.910519 9.015501 2.275391 1.748047 13.779593 26.044945 -18.597315 -1.091436 -16.757813 13.173828 7.792969 51.553619 8.070152 2.616707 -68.681641 0.683594 -15.517577 2.000000 -2.000000 0.000000 -76.103508 1.464844 8.193610 -115.520844 24.928926 53.458897 -31.002913 22.007139 -19.173149 -2.000000 2.000000 0.000000 77.822266 -11.171875 12.517642 54.335926 1.325027 -1.972998 -0.988311 -56.364521 -8.191585 -17.937401 10.740853 3.008537 32.422829 -4.795662 -3.025681 17.071632 12.561295 -0.954353 10.360547 2.489457 -25.649157 -2.582378 5.838772 -0.364184 -1.513280 -9.647125 -1.461420 
-0.606692 52.700874 11.470643 2.636719 2.783181 13.848234 26.022461 -21.022543 0.498453 -16.816406 12.138673 8.273538 51.553619 8.070152 2.616707 -69.609375 2.421875 -19.081619 2.000000 -2.000000 0.000000 -76.103508 1.464844 8.193610 -115.520844 24.928926 53.458897 -31.335426 23.571516 -16.511072 -2.000000 2.000000 0.000000 75.400391 -7.666016 13.817058 55.749035 1.154003 -2.227638 -3.283475 -54.814899 -6.622902 -18.328068 8.182442 5.441391 20.443014 -5.429215 -2.282651 12.603198 12.168352 -0.649550 13.372122 2.486307 -27.156963 -2.935753 5.823998 -0.072751 -2.570627 -9.257745 -1.957312 
-0.298464 52.334190 13.942681 2.636719 3.496094 14.404297 25.844536 -21.939425 1.485844 -16.318357 11.259767 8.878860 51.553619 8.070152 2.616707 -70.097656 2.968750 -21.386719 2.000000 -2.000000 0.000000 -76.103508 1.464844 8.193610 -115.520844 24.928926 53.458897 -31.626968 24.900188 -14.537532 -2.000000 2.000000 0.000000 74.238281 -5.009766 10.487429 56.803432 1.172934 -2.216758 -4.299280 -54.222458 -5.724869 -17.477154 4.832637 7.459582 8.080494 -5.721782 -1.104579 10.475661 10.153743 0.255158 16.558790 2.439419 -27.774984 -2.932284 5.819561 -0.238520 -3.956946 -9.438617 -1.944907 
0.400265 51.882813 16.331667 2.636719 3.837861 15.479281 25.680649 -21.635933 2.055419 -15.644531 10.361329 9.513476 51.553619 8.070152 2.616707 -69.960938 2.451172 -22.255861 2.000000 -2.000000 0.000000 -76.103508 1.464844 8.193610 -115.520844 24.928926 53.458897 -32.660515 25.970274 -14.117719 -2.000000 2.000000 0.000000 73.798828 -3.613281 3.837891 57.681782 1.191296 -2.196133 -4.285200 -54.681404 -5.605564 -14.932352 1.385166 5.142706 -2.901825 -6.297619 0.032225 12.696975 10.770704 0.210999 19.939224 2.557418 -28.389996 -2.934345 5.813770 -0.072322 -4.110311 -9.379642 -1.381962 
